<?xml version="1.0" encoding="UTF-8" standalone="no"?>
<svg xmlns:dc="http://purl.org/dc/elements/1.1/" xmlns:cc="http://creativecommons.org/ns#" xmlns:rdf="http://www.w3.org/1999/02/22-rdf-syntax-ns#" xmlns:svg="http://www.w3.org/2000/svg" xmlns="http://www.w3.org/2000/svg" viewBox="0 0 960.33331 576" height="960.33331" width="960.33331" xml:space="preserve" id="svg2" version="1.2" baseProfile="tiny-ps"><metadata id="metadata8"><rdf:RDF><cc:Work rdf:about=""><dc:format>image/svg+xml</dc:format><dc:type rdf:resource="http://purl.org/dc/dcmitype/StillImage"/></cc:Work></rdf:RDF></metadata><defs id="defs6"><clipPath id="clipPath18" clipPathUnits="userSpaceOnUse"><path id="path16" d="M 0,432 H 720.25 V 0 H 0 Z"/></clipPath><clipPath id="clipPath34" clipPathUnits="userSpaceOnUse"><path id="path32" d="M 0,432 H 720.25 V 0 H 0 Z"/></clipPath><clipPath id="clipPath54" clipPathUnits="userSpaceOnUse"><path id="path52" d="M 0,432 H 720.25 V 0 H 0 Z"/></clipPath></defs><g transform="matrix(1.3333333,0,0,-1.3333333,0,576)" id="g10"><g id="g12"><g clip-path="url(#clipPath18)" id="g14"><g transform="translate(450.9468,325.1665)" id="g20"><path id="path22" style="fill:#f36917;fill-opacity:1;fill-rule:nonzero;stroke:none" d="M 0,0 C 4.359,-12.201 7.171,-24.422 8.437,-36.346 7.602,-37.252 6.795,-38.224 6.071,-39.316 1.825,-45.763 0.954,-53.165 3.72,-57.609 -7.593,-71.201 -21.086,-84.101 -36.761,-95.772 -12.444,-68.32 -0.19,-34.078 0,0 M 10.015,29.084 C 6.42,35.552 0.088,39.922 -5.799,41.17 c -2.402,8.149 -5.548,16.113 -9.44,23.783 1.063,0.174 2.021,0.486 2.882,0.899 17.88,-15.137 32.842,-31.436 44.884,-48.068 -0.635,-1.05 -1.193,-2.196 -1.557,-3.528 -1.782,-6.579 0.248,-14.341 4.788,-19.091 -3.564,-8.749 -7.923,-17.488 -13.077,-26.098 -2.048,0.467 -4.21,0.362 -6.341,-0.284 -1.774,12.461 -5.214,25.194 -10.321,37.842 6.687,4.083 8.942,13.674 3.996,22.459 M -30.91,-97.643 c 15.329,11.119 28.633,23.404 39.913,36.376 5.408,-1.219 12.999,1.779 17.978,8.044 4.991,6.257 5.356,13.789 1.734,18.448 4.207,6.687 7.931,13.463 11.17,20.273 0.886,1.862 1.736,3.726 2.549,5.592 2.401,-0.626 4.978,-0.544 7.491,0.43 7.423,2.85 11.206,12.148 7.475,20.702 -1.245,2.911 -3.161,5.348 -5.392,7.2 2.026,8.405 3.304,16.718 3.835,24.83 3.41,-0.889 6.718,-0.842 9.491,0.356 7.715,3.317 8.056,14.001 -0.674,23.303 -8.697,9.305 -22.291,13.961 -28.935,11.037 -6.683,-2.931 -4.759,-12.766 2.861,-22.482 2.697,-3.377 5.808,-6.238 9.059,-8.406 -0.3,-8.131 -1.362,-16.483 -3.187,-24.945 -2.274,0.428 -4.537,0.272 -6.6,-0.571 -12.567,16.519 -28.039,32.628 -46.416,47.504 0.49,1.365 0.687,2.918 0.34,4.737 -1.444,8.063 -11.869,16.975 -23.392,21.369 -1.131,0.443 -2.261,0.881 -3.374,1.226 -0.003,0.001 -0.007,0.003 -0.01,0.005 -0.095,0.029 -0.169,0.038 -0.261,0.064 -1.43,0.437 -2.836,0.798 -4.193,1.062 -0.21,0.038 -0.387,0.041 -0.598,0.079 -1.13,0.196 -2.249,0.376 -3.293,0.439 -10.344,0.597 -11.657,-5.719 -4.805,-15.149 5.189,-7.093 13.454,-13.906 21.5,-17.141 0.025,-0.01 0.048,-0.027 0.076,-0.034 0.577,-0.234 1.107,-0.352 1.666,-0.54 0.61,-0.205 1.223,-0.448 1.829,-0.607 4.086,-7.958 7.366,-16.236 9.842,-24.712 -0.215,-0.076 -0.436,-0.138 -0.645,-0.225 -7.253,-3.126 -8.494,-13.44 -4.045,-23.206 2.406,-5.171 6.091,-9.087 10.291,-11.149 0.483,-12.728 -0.723,-25.54 -3.616,-38.07 -0.985,-4.273 -2.168,-8.513 -3.546,-12.705 -0.007,0.095 -3.996,-13.929 -11.279,-26.635 -6.758,-12.916 -16.809,-24.511 -16.802,-24.422 -2.403,-3.746 -3.651,-4.508 -4.793,-5.42 3.418,-0.774 6.65,-1.664 9.416,-2.923 0.009,-0.005 2.247,3.375 7.34,6.266"/></g><g transform="translate(356.0894,108.4482)" id="g24"><path id="path26" style="fill:#f36917;fill-opacity:1;fill-rule:nonzero;stroke:none" d="m 0,0 c -4.004,11.895 -6.458,23.811 -7.361,35.418 0.744,0.802 1.457,1.673 2.109,2.661 3.798,5.864 4.713,13.006 2.512,17.575 C 7.447,67.995 19.542,79.717 33.544,90.371 11.045,64.42 -0.136,32.133 0,0 m -8.779,-26.315 c 3.318,-6.307 9.169,-10.86 14.602,-12.504 2.33,-7.688 5.359,-15.202 9.088,-22.443 -0.992,-0.076 -1.881,-0.279 -2.685,-0.58 -16.858,15.103 -30.663,31.408 -41.412,48.008 0.58,0.929 1.091,1.949 1.428,3.167 1.642,5.999 -0.131,13.487 -4.091,18.388 3.295,7.96 7.285,15.897 11.97,23.715 1.778,-0.622 3.667,-0.708 5.541,-0.278 1.33,-12.122 4.331,-24.533 9.003,-36.864 -5.962,-3.251 -8.002,-12.039 -3.444,-20.609 M 28.846,92.669 C 15.091,82.556 3.106,71.421 -7.108,59.666 -11.664,61.296 -18.3,58.973 -22.871,53.313 -27.452,47.656 -28.074,40.438 -25.049,35.651 -28.9,29.586 -32.327,23.436 -35.33,17.248 c -0.821,-1.691 -1.61,-3.386 -2.367,-5.082 -2.118,0.808 -4.397,0.952 -6.645,0.252 -6.632,-2.051 -10.295,-10.501 -7.147,-18.858 1.051,-2.838 2.725,-5.285 4.701,-7.213 -1.984,-7.681 -3.316,-15.3 -3.994,-22.766 -3.104,1.109 -6.132,1.352 -8.708,0.476 -7.155,-2.416 -7.909,-12.314 -0.18,-21.593 7.697,-9.289 20.314,-14.568 26.675,-12.412 6.402,2.161 4.771,11.245 -2.13,20.809 -2.44,3.329 -5.258,6.225 -8.204,8.498 0.434,7.484 1.537,15.14 3.307,22.876 2.051,-0.599 4.103,-0.653 5.979,-0.047 11.209,-16.504 25.457,-32.645 42.744,-47.518 -0.449,-1.197 -0.631,-2.582 -0.303,-4.247 1.352,-7.384 11.128,-16.125 22.115,-20.794 1.076,-0.47 2.154,-0.933 3.218,-1.315 0.004,-0.002 0.007,-0.004 0.011,-0.006 0.085,-0.031 0.162,-0.045 0.247,-0.074 1.365,-0.482 2.709,-0.898 4.006,-1.217 0.204,-0.052 0.374,-0.067 0.572,-0.112 1.086,-0.253 2.161,-0.487 3.162,-0.611 9.933,-1.201 11.16,4.184 4.463,13.002 -5.062,6.641 -13.004,13.375 -20.586,16.924 -0.022,0.009 -0.049,0.027 -0.075,0.036 -0.541,0.256 -1.039,0.405 -1.566,0.619 -0.576,0.234 -1.149,0.499 -1.72,0.691 -3.955,7.496 -7.155,15.292 -9.599,23.278 0.196,0.051 0.4,0.088 0.586,0.152 6.62,2.248 7.435,11.607 3.17,21.103 -2.303,5.028 -5.694,9.026 -9.493,11.329 -0.629,12 0.326,24.084 2.864,35.911 0.865,4.031 1.914,8.033 3.147,11.991 0.006,-0.09 3.573,13.181 10.243,25.226 6.174,12.24 15.451,23.255 15.444,23.171 2.292,3.617 3.41,4.311 4.434,5.157 -2.758,1.022 -5.344,2.144 -7.485,3.607 -0.01,0.007 -2.214,-3.266 -6.71,-5.822"/></g></g></g><g id="g28"><g clip-path="url(#clipPath34)" id="g30"><g transform="translate(420.0508,186.1416)" id="g36"><path id="path38" style="fill:#fddd04;fill-opacity:1;fill-rule:nonzero;stroke:none" d="M 0,0 C 0.528,-0.946 1.075,-1.879 1.631,-2.803 L 0.166,0.733 C 0.131,0.483 0.071,0.24 0,0"/></g><g transform="translate(290.6699,264.4434)" id="g40"><path id="path42" style="fill:#6ec72e;fill-opacity:1;fill-rule:nonzero;stroke:none" d="M 0,0 C 13.13,4.373 26.283,7.114 39.127,8.223 40.164,7.234 41.27,6.282 42.494,5.419 49.757,0.344 57.777,-0.856 62.379,2.278 77.699,-11.068 92.23,-26.93 105.339,-45.309 75.181,-16.89 37.501,-1.787 0,0 M -32.845,12.6 C -39.798,8.862 -44.28,2.02 -45.296,-4.468 c -8.966,-2.258 -17.726,-5.337 -26.162,-9.239 -0.265,1.178 -0.675,2.249 -1.192,3.218 16.028,18.949 33.253,34.908 50.853,47.877 1.207,-0.747 2.509,-1.411 4.007,-1.87 7.392,-2.224 15.8,-0.205 20.709,4.81 9.845,-4.287 19.689,-9.492 29.392,-15.615 -0.375,-2.337 -0.115,-4.815 0.726,-7.277 C 19.612,15.752 5.912,12.309 -7.696,7.107 -12.648,14.846 -23.392,17.75 -32.845,12.6 M 106.989,-38.373 C 94.474,-20.461 80.614,-4.886 65.976,8.354 c 0.972,6.267 -2.719,15.101 -9.798,20.911 -7.076,5.826 -15.264,6.335 -20.091,2.282 -7.542,4.964 -15.179,9.37 -22.848,13.217 -2.097,1.051 -4.196,2.061 -6.296,3.029 0.525,2.71 0.259,5.638 -0.976,8.511 -3.621,8.49 -14.08,12.907 -23.272,8.888 -3.133,-1.342 -5.693,-3.439 -7.595,-5.894 -9.426,2.474 -18.73,4.086 -27.785,4.835 0.769,3.763 0.506,7.438 -1.001,10.532 -4.18,8.62 -16.043,9.045 -25.883,-0.488 -9.846,-9.5 -14.308,-24.274 -10.656,-31.557 3.663,-7.322 14.619,-5.472 25.008,2.69 3.603,2.89 6.601,6.263 8.811,9.815 9.077,-0.518 18.427,-1.917 27.919,-4.196 -0.324,-2.535 -0.001,-5.072 1.069,-7.411 -17.467,-13.572 -34.473,-30.119 -50.204,-49.642 -1.577,0.595 -3.344,0.88 -5.381,0.574 -9.04,-1.256 -18.596,-12.315 -23.035,-24.625 -0.446,-1.206 -0.891,-2.421 -1.228,-3.607 l -0.005,-0.012 c -0.028,-0.1 -0.036,-0.183 -0.062,-0.278 -0.424,-1.533 -0.766,-3.039 -0.999,-4.497 -0.037,-0.231 -0.029,-0.421 -0.062,-0.647 -0.168,-1.214 -0.317,-2.421 -0.335,-3.547 -0.17,-11.147 7.225,-12.9 17.658,-5.988 7.845,5.245 15.103,13.905 18.279,22.584 0.012,0.029 0.029,0.058 0.036,0.084 0.23,0.623 0.332,1.197 0.511,1.802 0.196,0.662 0.432,1.323 0.577,1.98 8.765,4.071 17.88,7.254 27.212,9.547 0.1,-0.243 0.184,-0.492 0.296,-0.73 3.972,-8.235 15.603,-10.273 26.133,-5.832 5.573,2.408 9.648,6.355 11.642,10.995 14.008,-0.103 28.103,-2.069 41.881,-5.897 4.698,-1.304 9.36,-2.826 13.969,-4.564 -0.106,-0.008 15.292,-5.105 29.223,-13.828 14.165,-8.145 26.863,-19.916 26.764,-19.91 4.056,-2.805 4.917,-4.267 5.929,-5.604 0.63,4.055 1.395,7.895 2.573,11.203 0.005,0.007 -3.647,2.576 -6.965,8.548"/></g><g transform="translate(415.7036,208.3467)" id="g44"><path id="path46" style="fill:#6ec72e;fill-opacity:1;fill-rule:nonzero;stroke:none" d="m 0,0 c 10.151,-8.087 23.822,-18.585 40.672,-26.72 1.851,-7.397 8.195,-15.291 16.636,-18.203 1.42,-0.491 2.806,-0.776 4.168,-0.947 10.21,-12.103 21.047,-23.1 32.009,-32.71 C 53.924,-64.291 19.042,-28.608 0,0 m 105.195,-75.126 c -11.392,8.976 -22.864,19.457 -33.821,31.272 2.004,1.278 3.527,3.063 4.408,5.218 11.844,-2.37 24.191,-3.148 36.3,-2.228 2.208,-6.345 9.759,-10.531 18.59,-8.592 1.788,0.384 3.477,1.045 5.101,1.832 11.694,-13.231 22.633,-24.988 32.341,-36.12 -0.975,-1.415 -1.888,-2.87 -2.685,-4.35 -7.756,-0.767 -16.234,-1.105 -25.217,-0.607 2.057,6.646 0.42,12.72 -5.231,15.972 -7.664,4.342 -20.497,2.961 -29.786,-2.397 M -3.702,13.027 C -4.095,8.678 -4.765,4.674 -5.508,0.72 c 0.683,-0.683 1.299,-1.107 3.557,-5.552 -0.05,0.149 7.634,-11.893 18.437,-25.122 10.429,-12.938 24.16,-25.512 24.098,-25.301 4.14,-3.613 8.458,-7.089 12.923,-10.371 13.088,-9.644 27.494,-17.525 42.076,-22.9 -0.412,-4.834 1.707,-9.958 6.453,-13.698 8.969,-7.234 23.646,-5.436 32.367,3.944 0.249,0.261 0.471,0.531 0.706,0.798 9.517,-0.852 18.551,-0.733 26.829,-0.073 -0.124,-0.645 -0.14,-1.236 -0.208,-1.861 -0.061,-0.562 -0.194,-1.139 -0.2,-1.689 -0.007,-0.03 0,-0.051 0.004,-0.074 -0.184,-7.735 4.704,-12.882 11.973,-11.872 9.763,1.378 18.84,12.744 21.867,24.936 0.318,1.243 0.522,2.426 0.709,3.596 0.034,0.216 0.099,0.441 0.129,0.656 0.192,1.373 0.289,2.675 0.314,3.921 10e-4,0.075 0.019,0.164 0.019,0.241 0,0.005 -10e-4,0.007 -10e-4,0.011 0.01,0.954 -0.078,1.829 -0.166,2.692 -0.873,8.869 -6.435,11.876 -15.248,6.25 -1.992,-1.26 -3.952,-2.903 -5.862,-4.707 -9.065,10.875 -19.414,22.098 -30.67,34.607 2.23,2.61 3.767,5.395 4.645,8.077 10.611,3.864 20.312,8.819 28.804,13.988 0.666,-2.922 2.161,-5.179 4.402,-6.33 6.596,-3.277 15.682,3.481 20.264,14.335 4.592,10.807 4.696,22.935 0.312,27.163 -4.378,4.179 -13.335,-2.525 -20.14,-14.287 -2.401,-4.246 -4.035,-8.54 -4.78,-12.46 -8.398,-5.115 -17.979,-10.022 -28.458,-13.872 -0.714,2.412 -2.224,4.387 -4.642,5.678 -7.024,3.661 -19.421,0.812 -27.478,-6.104 -2.728,-2.403 -4.543,-5.074 -5.47,-7.819 -2.583,-0.193 -5.177,-0.311 -7.774,-0.355 -9.502,-0.162 -19.053,0.714 -28.3,2.544 -2.163,6.925 -9.553,13.227 -17.999,16.125 -8.465,2.87 -15.036,1.238 -17.145,-4.25 -16.249,7.826 -29.568,17.856 -39.605,25.83 -3.011,1.247 -4.927,5.608 -4.936,5.612"/></g></g></g><g id="g48"><g clip-path="url(#clipPath54)" id="g50"><g transform="translate(522.4209,227.7744)" id="g56"><path id="path58" style="fill:#1a64b7;fill-opacity:1;fill-rule:nonzero;stroke:none" d="m 0,0 c -1.074,0.298 -2.187,0.51 -3.356,0.51 -5.775,0 -10.59,-3.904 -12.085,-9.2 h -22.913 c -0.536,1.895 -1.483,3.6 -2.766,5.021 l 23.336,24.125 c 3.18,-1.627 6.998,-1.952 10.555,-0.478 5.334,2.208 8.289,7.655 7.645,13.12 l 21.571,8.934 c 0.61,-0.876 1.311,-1.681 2.078,-2.418 z m -47.607,0.164 c -0.914,0.21 -1.857,0.346 -2.831,0.346 -5.776,0 -10.59,-3.904 -12.086,-9.2 h -37.943 l 73.911,30.615 z m -35.989,-103.345 -21.767,21.059 c 0.21,0.914 0.344,1.853 0.344,2.83 0,5.771 -3.901,10.586 -9.195,12.082 v 37.945 z m 11.169,-26.968 8.935,-21.569 c -0.879,-0.609 -1.683,-1.31 -2.421,-2.082 l -39.613,24.067 c 0.297,1.076 0.507,2.187 0.507,3.357 0,5.773 -3.901,10.586 -9.195,12.086 v 22.912 c 1.895,0.537 3.6,1.482 5.019,2.77 l 24.123,-23.34 c -1.627,-3.18 -1.952,-6.998 -0.48,-10.555 2.21,-5.334 7.659,-8.291 13.125,-7.646 m -79.228,209.118 21.759,-21.05 c -0.21,-0.912 -0.347,-1.854 -0.347,-2.829 0,-5.776 3.904,-10.592 9.201,-12.088 V 5.062 Z m -11.174,26.975 -8.934,21.573 c 0.876,0.609 1.682,1.31 2.418,2.08 l 39.614,-24.065 c -0.299,-1.077 -0.512,-2.189 -0.512,-3.362 0,-5.774 3.904,-10.589 9.201,-12.085 v -22.91 c -1.895,-0.535 -3.602,-1.483 -5.022,-2.769 l -24.124,23.339 c 1.626,3.177 1.952,6.997 0.479,10.553 -2.209,5.335 -7.655,8.288 -13.12,7.646 m -45.877,-152.076 21.059,21.762 c 0.912,-0.209 1.85,-0.344 2.825,-0.344 5.775,0 10.588,3.902 12.086,9.197 h 37.943 z m -8.772,1.473 c -3.177,1.627 -6.996,1.953 -10.553,0.478 -5.334,-2.209 -8.29,-7.658 -7.646,-13.123 l -21.571,-8.935 c -0.608,0.879 -1.308,1.681 -2.078,2.422 l 24.071,39.611 c 1.073,-0.299 2.182,-0.508 3.351,-0.508 5.775,0 10.59,3.902 12.086,9.197 h 22.912 c 0.536,-1.894 1.483,-3.601 2.769,-5.021 z m 40.808,60.635 v 0 l -45.633,-19.838 c -2.313,2.717 -5.717,4.479 -9.567,4.479 -5.774,0 -10.588,-3.904 -12.085,-9.2 h -23.346 c -0.227,1.046 -0.569,2.057 -0.996,3.034 l 45.502,33.15 c 0,0 -7.125,0.666 -10.125,0.75 l -39.435,-28.406 c -1.288,1.138 -2.73,2.134 -4.405,2.829 -7.378,3.055 -15.684,0.119 -19.683,-6.518 -0.413,-0.676 -0.821,-1.36 -1.129,-2.098 0,0 -10e-4,-0.004 -0.004,-0.006 -0.018,-0.043 -0.021,-0.088 -0.038,-0.131 -0.385,-0.938 -0.685,-1.921 -0.885,-2.938 -0.031,-0.162 -0.021,-0.322 -0.047,-0.484 -0.142,-0.849 -0.264,-1.706 -0.264,-2.594 0,-8.799 7.134,-15.932 15.932,-15.932 6.636,0 12.316,4.063 14.709,9.832 0.009,0.018 0.022,0.035 0.03,0.053 0.175,0.422 0.251,0.857 0.387,1.287 0.142,0.447 0.315,0.879 0.416,1.344 h 23.381 c 0.554,-1.953 1.537,-3.713 2.883,-5.158 l -24.073,-39.619 c -1.626,0.558 -3.338,0.927 -5.152,0.927 -8.008,0 -14.571,-5.929 -15.698,-13.625 -0.116,-0.76 -0.229,-1.521 -0.233,-2.299 0,-0.002 -10e-4,-0.003 -10e-4,-0.003 0,-0.061 0.018,-0.112 0.018,-0.168 0.005,-1.006 0.101,-2.018 0.304,-3.026 0.032,-0.154 0.099,-0.295 0.136,-0.449 0.195,-0.844 0.413,-1.688 0.756,-2.512 3.367,-8.131 12.686,-11.99 20.814,-8.623 6.132,2.541 9.825,8.469 9.828,14.717 0,0.02 0.007,0.037 0.007,0.057 0,0.429 -0.093,0.832 -0.127,1.254 -0.04,0.496 -0.047,0.992 -0.137,1.486 l 21.6,8.945 c 1.259,-1.594 2.842,-2.844 4.637,-3.662 l 12.785,-42.98 c 3.148,2.873 5.375,3.25 5.375,3.25 l -11.497,38.123 0.089,0.584 c 1.107,0.134 2.214,0.365 3.297,0.812 5.335,2.211 8.288,7.66 7.645,13.123 l 28.215,11.688 -5.718,-22.307 c 2.406,2.914 7.318,5.015 9.654,5.557 l 5.483,20.65 40.916,16.949 c 0.032,10e-4 11.142,-7.439 11.142,-7.439 v -37.944 c -5.298,-1.494 -9.202,-6.31 -9.202,-12.084 0,-5.775 3.904,-10.591 9.202,-12.085 l -1.699,-17.22 -24.928,46.626 -3.703,-9.575 25.505,-45.361 c -0.052,-0.051 -0.104,-0.099 -0.157,-0.148 -0.453,-0.528 -0.97,-1.104 -1.453,-1.529 -1.718,-2.141 -2.767,-4.833 -2.767,-7.792 0,-5.773 3.904,-10.589 9.202,-12.085 v -23.346 c -1.047,-0.227 -2.059,-0.567 -3.035,-0.996 l -35.473,49.439 c -0.047,-1.469 -0.093,-2.357 -0.093,-3.828 -0.001,-0.922 0,-3.729 0.031,-5.016 l 30.042,-44.65 c -1.139,-1.289 -2.135,-2.732 -2.83,-4.408 -3.054,-7.375 -0.119,-15.684 6.517,-19.684 0.677,-0.414 1.36,-0.818 2.098,-1.129 l 0.005,-0.002 c 0.044,-0.019 0.089,-0.021 0.133,-0.039 0.938,-0.384 1.919,-0.683 2.939,-0.884 0.161,-0.032 0.321,-0.022 0.483,-0.049 0.848,-0.141 1.705,-0.262 2.593,-0.262 8.798,0 15.931,7.133 15.931,15.932 0,6.636 -4.062,12.314 -9.832,14.709 -0.018,0.009 -0.035,0.021 -0.053,0.029 -0.424,0.176 -0.858,0.252 -1.289,0.389 -0.446,0.14 -0.875,0.314 -1.34,0.416 v 23.382 c 1.952,0.551 3.712,1.536 5.159,2.881 l 39.617,-24.068 c -0.558,-1.627 -0.927,-3.342 -0.927,-5.156 0,-8.012 5.934,-14.578 13.634,-15.701 0.758,-0.114 1.513,-0.227 2.29,-0.231 h 0.007 c 0.054,0 0.104,0.016 0.159,0.016 1.008,0.006 2.021,0.101 3.032,0.306 0.149,0.03 0.285,0.094 0.434,0.129 0.849,0.198 1.695,0.416 2.527,0.76 8.128,3.369 11.988,12.688 8.622,20.816 -2.54,6.133 -8.469,9.825 -14.716,9.829 -0.021,0 -0.039,0.005 -0.058,0.005 -0.432,0 -0.836,-0.091 -1.258,-0.127 -0.494,-0.041 -0.987,-0.046 -1.479,-0.134 l -8.947,21.599 c 1.59,1.258 2.842,2.84 3.66,4.635 l 60.848,-0.509 c -5.595,2.196 -7.761,7.029 -7.761,7.029 l -52.063,0.23 c -0.135,1.107 -0.366,2.217 -0.814,3.299 -2.21,5.334 -7.655,8.289 -13.118,7.646 l -11.34,27.373 -0.197,0.475 55.319,-21.557 c -3.25,1.875 -11.995,7.286 -14.183,8.721 -5.175,3.496 -12.238,8.592 -12.238,8.592 l -32.812,13.723 0.458,-1.135 -0.597,1.441 c 0,0 -17.214,40.649 -16.946,40.916 0.267,0.268 7.435,11.139 7.435,11.139 h 37.943 c 1.496,-5.295 6.311,-9.197 12.086,-9.197 5.773,0 10.588,3.902 12.084,9.197 h 17.881 l -40.273,-17.488 c 6.583,1.687 11.645,-0.563 14.523,-1.674 l 33.302,14.441 c 2.311,-2.715 5.715,-4.476 9.565,-4.476 5.771,0 10.586,3.902 12.084,9.197 h 23.347 c 0.227,-1.045 0.569,-2.057 0.995,-3.033 0,0 -44.882,-33.361 -44.837,-33.685 3.208,-0.208 7.708,-0.125 10.437,-0.208 -0.019,0.055 38.46,28.399 38.46,28.399 1.287,-1.139 2.731,-2.135 4.404,-2.827 7.405,-3.068 15.745,-0.095 19.725,6.596 0.393,0.654 0.789,1.307 1.088,2.018 0,0 0,0.004 0.004,0.007 0.021,0.057 0.029,0.116 0.051,0.176 0.375,0.924 0.673,1.891 0.871,2.891 0.033,0.178 0.023,0.355 0.052,0.533 0.133,0.834 0.258,1.674 0.258,2.549 0,8.798 -7.135,15.931 -15.931,15.931 -6.637,0 -12.317,-4.064 -14.711,-9.834 -0.008,-0.019 -0.02,-0.033 -0.028,-0.052 -0.17,-0.409 -0.242,-0.829 -0.377,-1.243 -0.144,-0.463 -0.322,-0.91 -0.427,-1.39 H 8.762 c -0.551,1.952 -1.533,3.712 -2.879,5.156 l 24.07,39.622 c 1.625,-0.557 3.338,-0.925 5.152,-0.925 7.983,0 14.532,5.889 15.69,13.548 0.123,0.785 0.238,1.573 0.24,2.375 V 51.2 c 0,0.057 -0.015,0.109 -0.015,0.165 -0.008,1.007 -0.102,2.017 -0.307,3.026 -0.031,0.155 -0.098,0.295 -0.135,0.448 -0.195,0.843 -0.414,1.687 -0.754,2.513 -3.367,8.128 -12.687,11.988 -20.816,8.621 -6.131,-2.539 -9.824,-8.465 -9.828,-14.712 0,-0.02 -0.006,-0.04 -0.006,-0.061 0,-0.444 0.096,-0.864 0.131,-1.3 0.041,-0.482 0.047,-0.96 0.134,-1.441 L -2.162,39.512 c -1.258,1.595 -2.842,2.846 -4.641,3.666 l -5.817,59.861 c 0,0 -0.758,-7.773 -5.592,-12.273 l 4.659,-46.564 c -1.107,-0.137 -2.213,-0.368 -3.293,-0.815 -5.338,-2.21 -8.292,-7.659 -7.646,-13.125 l -28.21,-11.684 10.198,28.648 c -1.234,-3.465 -9.752,-9.095 -9.964,-9.307 -0.362,-0.362 -9.653,-23.242 -9.653,-23.242 0,0 -40.649,-17.235 -40.929,-16.954 -0.28,0.281 -11.13,7.445 -11.13,7.445 v 37.944 c 5.294,1.498 9.196,6.311 9.196,12.085 0,5.772 -3.902,10.585 -9.196,12.083 v 17.892 l 22.204,-48.16 c 0.048,-0.071 2.458,6.463 3.168,7.678 -0.02,0.117 -20.657,48.02 -20.657,48.02 2.721,2.315 4.481,5.719 4.481,9.567 0,5.774 -3.902,10.587 -9.196,12.085 v 23.349 c 1.046,0.228 2.058,0.568 3.034,0.997 L -78.92,94.393 c 0.255,0.311 0.285,9.797 0.083,9.541 0,0 -9.5,3.792 -12.692,18.097 l -14.126,20.733 c 1.137,1.287 2.134,2.73 2.827,4.406 3.068,7.405 0.096,15.743 -6.593,19.726 -0.654,0.394 -1.311,0.786 -2.02,1.085 l -0.008,0.002 c -0.057,0.026 -0.116,0.03 -0.175,0.055 -0.925,0.374 -1.89,0.673 -2.892,0.869 -0.177,0.035 -0.355,0.026 -0.533,0.053 -0.834,0.136 -1.675,0.257 -2.548,0.257 -8.798,0 -15.928,-7.132 -15.928,-15.93 0,-6.637 4.061,-12.316 9.831,-14.711 0.019,-0.007 0.033,-0.021 0.053,-0.028 0.409,-0.169 0.829,-0.241 1.243,-0.374 0.462,-0.147 0.911,-0.327 1.391,-0.432 v -23.378 c -1.953,-0.551 -3.714,-1.536 -5.16,-2.882 l -39.621,24.072 c 0.56,1.624 0.927,3.338 0.927,5.152 0,7.982 -5.888,14.532 -13.547,15.69 -0.786,0.122 -1.573,0.237 -2.376,0.239 0,0 -0.005,0.002 -0.008,0.002 -0.055,0 -0.109,-0.017 -0.163,-0.017 -1.005,-0.007 -2.018,-0.102 -3.026,-0.304 -0.156,-0.033 -0.295,-0.101 -0.449,-0.135 -0.843,-0.198 -1.687,-0.415 -2.513,-0.758 -8.128,-3.366 -11.988,-12.685 -8.622,-20.813 2.54,-6.132 8.466,-9.824 14.713,-9.828 0.022,0 0.04,-0.007 0.06,-0.007 0.445,0 0.865,0.096 1.302,0.132 0.479,0.039 0.961,0.046 1.439,0.131 l 8.948,-21.598 c -1.595,-1.259 -2.846,-2.842 -3.667,-4.64 0,0 -58.499,0.931 -57.45,0.554 0.956,-0.847 3.841,-3.753 4.797,-6.725 -0.206,-0.028 51.63,-0.58 51.63,-0.58 0.137,-1.107 0.367,-2.216 0.814,-3.296 2.21,-5.335 7.661,-8.291 13.125,-7.645 l 11.688,-28.216 c 0,0 -13.141,5.49 -23.928,9.995 5.951,-7.334 5.732,-10.542 5.732,-10.542 l 22.097,-8.873 16.952,-40.923 -7.446,-11.132 h -37.943 c -1.495,5.296 -6.311,9.2 -12.086,9.2 -5.775,0 -10.588,-3.904 -12.086,-9.2 h -17.878 l 47.373,20.475"/></g><g transform="translate(423.125,215.4063)" id="g60"><path id="path62" style="fill:#1a64b7;fill-opacity:1;fill-rule:nonzero;stroke:none" d="m 0,0 c 0,-10.165 -8.199,-18.406 -18.313,-18.406 -10.114,0 -18.312,8.241 -18.312,18.406 0,10.166 8.198,18.406 18.312,18.406 C -8.199,18.406 0,10.166 0,0"/></g></g></g></g><title>Title</title></svg>
